<svg width="100" height="100" viewBox="0 0 100 100" fill="none" xmlns="http://www.w3.org/2000/svg">
<path d="M19.0643 19.0643C20.2363 17.8926 21.8258 17.2344 23.483 17.2344C25.1403 17.2344 26.7297 17.8926 27.9018 19.0643L50.0018 41.1643L72.1018 19.0643C73.2806 17.9258 74.8593 17.2958 76.498 17.3101C78.1368 17.3243 79.7044 17.9816 80.8632 19.1404C82.022 20.2992 82.6793 21.8668 82.6935 23.5055C82.7077 25.1443 82.0778 26.723 80.9393 27.9018L58.8393 50.0018L80.9393 72.1018C82.0778 73.2806 82.7077 74.8593 82.6935 76.498C82.6793 78.1368 82.022 79.7044 80.8632 80.8632C79.7044 82.022 78.1368 82.6793 76.498 82.6935C74.8593 82.7077 73.2806 82.0778 72.1018 80.9393L50.0018 58.8393L27.9018 80.9393C26.723 82.0778 25.1443 82.7077 23.5055 82.6935C21.8668 82.6793 20.2992 82.022 19.1404 80.8632C17.9816 79.7044 17.3243 78.1368 17.3101 76.498C17.2958 74.8593 17.9258 73.2806 19.0643 72.1018L41.1643 50.0018L19.0643 27.9018C17.8926 26.7297 17.2344 25.1403 17.2344 23.483C17.2344 21.8258 17.8926 20.2363 19.0643 19.0643V19.0643Z" fill="#5C5B5B"/>
</svg>
