<svg width="57" height="40" viewBox="0 0 57 40" fill="none" xmlns="http://www.w3.org/2000/svg">
<g clip-path="url(#clip0_2674_715)">
<path d="M55.5867 6.23889C55.2607 5.03301 54.6247 3.93365 53.7421 3.05028C52.8595 2.16692 51.7611 1.53036 50.5562 1.204C46.1452 0 28.3922 0 28.3922 0C28.3922 0 10.6384 0.0364443 6.22736 1.24044C5.02246 1.56682 3.92402 2.20341 3.04141 3.08682C2.15881 3.97023 1.52284 5.06964 1.19684 6.27556C-0.1374 14.1196 -0.654974 26.072 1.23347 33.6022C1.55951 34.8081 2.19549 35.9075 3.0781 36.7908C3.9607 37.6742 5.05913 38.3108 6.264 38.6371C10.675 39.8411 28.4284 39.8411 28.4284 39.8411C28.4284 39.8411 46.1816 39.8411 50.5924 38.6371C51.7973 38.3108 52.8958 37.6742 53.7784 36.7909C54.6611 35.9075 55.2971 34.8081 55.6231 33.6022C57.0304 25.7471 57.4641 13.8022 55.5867 6.23911V6.23889Z" fill="#FF0000"/>
<path d="M22.7422 28.4575L37.4696 19.9201L22.7422 11.3828V28.4575Z" fill="white"/>
</g>
<defs>
<clipPath id="clip0_2674_715">
<rect width="56.8421" height="40" fill="white"/>
</clipPath>
</defs>
</svg>
